HIERARCHY
ROOT newVegas:Hips
{
	OFFSET 0.000000 96.479958 0.000000
	CHANNELS 6 Xposition Yposition Zposition Xrotation Yrotation Zrotation
	JOINT newVegas:Pelvis
	{
		OFFSET 0.000000 0.000000 0.000000
		CHANNELS 3 Xrotation Yrotation Zrotation
		JOINT newVegas:LeftUpLeg
		{
			OFFSET 18.735201 -5.666702 -4.541200
			CHANNELS 3 Xrotation Yrotation Zrotation
			JOINT newVegas:LeftLeg
			{
				OFFSET -0.021200 -31.938179 0.493100
				CHANNELS 3 Xrotation Yrotation Zrotation
				JOINT newVegas:LeftFoot
				{
					OFFSET 0.021200 -31.938179 -4.336299
					CHANNELS 3 Xrotation Yrotation Zrotation
					JOINT newVegas:LeftToeBase
					{
						OFFSET 0.943001 -26.722000 15.023500
						CHANNELS 3 Xrotation Yrotation Zrotation
						End Site
						{
							OFFSET 0.000000 30.670183 0.000000
						}
					}
				}
				JOINT newVegas:Left_PantLeg
				{
					OFFSET 0.663870 -9.044666 -1.108900
					CHANNELS 3 Xrotation Yrotation Zrotation
					End Site
					{
						OFFSET 1.415995 20.635357 0.000000
					}
				}
			}
		}
		JOINT newVegas:RightUpLeg
		{
			OFFSET -18.735201 -5.666702 -4.541200
			CHANNELS 3 Xrotation Yrotation Zrotation
			JOINT newVegas:RightLeg
			{
				OFFSET 0.018946 -31.938133 0.493100
				CHANNELS 3 Xrotation Yrotation Zrotation
				JOINT newVegas:RightFoot
				{
					OFFSET -0.018946 -31.938126 -4.336299
					CHANNELS 3 Xrotation Yrotation Zrotation
					JOINT newVegas:RightToeBase
					{
						OFFSET -0.943001 -26.722004 15.023500
						CHANNELS 3 Xrotation Yrotation Zrotation
						End Site
						{
							OFFSET 0.000000 30.670187 0.000000
						}
					}
				}
				JOINT newVegas:Right_PantLeg
				{
					OFFSET -0.661674 -9.044716 -1.108900
					CHANNELS 3 Xrotation Yrotation Zrotation
					End Site
					{
						OFFSET -1.415958 20.635269 0.000000
					}
				}
			}
		}
	}
	JOINT newVegas:Spine
	{
		OFFSET 0.000000 10.199997 -0.299500
		CHANNELS 3 Xrotation Yrotation Zrotation
		JOINT newVegas:Spine1
		{
			OFFSET 0.000000 11.900002 -1.516600
			CHANNELS 3 Xrotation Yrotation Zrotation
			JOINT newVegas:Spine2
			{
				OFFSET 0.000000 13.600006 -2.842500
				CHANNELS 3 Xrotation Yrotation Zrotation
				JOINT newVegas:Neck
				{
					OFFSET 0.000000 9.624100 -2.890100
					CHANNELS 3 Xrotation Yrotation Zrotation
					JOINT newVegas:Head
					{
						OFFSET 0.000000 14.068802 -1.351900
						CHANNELS 3 Xrotation Yrotation Zrotation
						JOINT newVegas:Hair_Back
						{
							OFFSET 0.000000 3.231903 -17.524799
							CHANNELS 3 Xrotation Yrotation Zrotation
							End Site
							{
								OFFSET 0.000000 19.849884 0.000000
							}
						}
						JOINT newVegas:Hair_Front
						{
							OFFSET 0.000000 31.260406 4.573800
							CHANNELS 3 Xrotation Yrotation Zrotation
							JOINT newVegas:Hair_Front1
							{
								OFFSET 0.000000 2.284103 11.993300
								CHANNELS 3 Xrotation Yrotation Zrotation
								JOINT newVegas:Hair_Front2
								{
									OFFSET 0.000000 2.284103 11.993300
									CHANNELS 3 Xrotation Yrotation Zrotation
									End Site
									{
										OFFSET 0.000000 12.208862 0.000000
									}
								}
							}
						}
						JOINT newVegas:Jowel
						{
							OFFSET 0.000000 -7.458206 6.864100
							CHANNELS 3 Xrotation Yrotation Zrotation
							End Site
							{
								OFFSET 0.000000 19.849884 0.000000
							}
						}
					}
				}
				JOINT newVegas:LeftShoulder
				{
					OFFSET 15.263000 10.923401 -0.547700
					CHANNELS 3 Xrotation Yrotation Zrotation
					JOINT newVegas:LeftArm
					{
						OFFSET 25.438599 -2.830597 -13.032500
						CHANNELS 3 Xrotation Yrotation Zrotation
						JOINT newVegas:LeftForeArm
						{
							OFFSET 29.960503 0.000000 0.000000
							CHANNELS 3 Xrotation Yrotation Zrotation
							JOINT newVegas:LeftHand
							{
								OFFSET 27.849251 0.000000 0.000000
								CHANNELS 3 Xrotation Yrotation Zrotation
								JOINT newVegas:LeftHandThumb1
								{
									OFFSET 4.487587 -3.305161 6.305391
									CHANNELS 3 Xrotation Yrotation Zrotation
									JOINT newVegas:LeftHandThumb2
									{
										OFFSET 5.480453 -3.164139 3.164143
										CHANNELS 3 Xrotation Yrotation Zrotation
										JOINT newVegas:LeftHandThumb3
										{
											OFFSET 5.159721 -2.978973 2.978967
											CHANNELS 3 Xrotation Yrotation Zrotation
											End Site
											{
												OFFSET 2.494507 5.926697 1.738678
											}
										}
									}
								}
								JOINT newVegas:LeftHandIndex1
								{
									OFFSET 18.578728 -0.527832 5.208049
									CHANNELS 3 Xrotation Yrotation Zrotation
									JOINT newVegas:LeftHandIndex2
									{
										OFFSET 3.192009 0.000000 0.000000
										CHANNELS 3 Xrotation Yrotation Zrotation
										JOINT newVegas:LeftHandIndex3
										{
											OFFSET 3.835129 0.000000 0.000000
											CHANNELS 3 Xrotation Yrotation Zrotation
											End Site
											{
												OFFSET -0.034599 3.816971 0.371180
											}
										}
									}
								}
								JOINT newVegas:LeftHandMiddle1
								{
									OFFSET 18.476105 0.000000 0.000000
									CHANNELS 3 Xrotation Yrotation Zrotation
									JOINT newVegas:LeftHandMiddle2
									{
										OFFSET 3.324875 0.000000 0.000000
										CHANNELS 3 Xrotation Yrotation Zrotation
										JOINT newVegas:LeftHandMiddle3
										{
											OFFSET 4.596550 0.000000 0.000000
											CHANNELS 3 Xrotation Yrotation Zrotation
											End Site
											{
												OFFSET 0.057701 4.578827 0.399218
											}
										}
									}
								}
								JOINT newVegas:LeftHandRing1
								{
									OFFSET 17.732719 0.121887 -4.201567
									CHANNELS 3 Xrotation Yrotation Zrotation
									JOINT newVegas:LeftHandRing2
									{
										OFFSET 2.733170 0.000000 0.000000
										CHANNELS 3 Xrotation Yrotation Zrotation
										JOINT newVegas:LeftHandRing3
										{
											OFFSET 3.178268 0.000000 0.000000
											CHANNELS 3 Xrotation Yrotation Zrotation
											End Site
											{
												OFFSET 0.119102 3.170624 0.185394
											}
										}
									}
								}
								JOINT newVegas:LeftHandPinky1
								{
									OFFSET 15.989624 -0.606689 -7.535461
									CHANNELS 3 Xrotation Yrotation Zrotation
									JOINT newVegas:LeftHandPinky2
									{
										OFFSET 2.538986 0.000000 0.000000
										CHANNELS 3 Xrotation Yrotation Zrotation
										JOINT newVegas:LeftHandPinky3
										{
											OFFSET 2.593102 0.000000 0.000000
											CHANNELS 3 Xrotation Yrotation Zrotation
											End Site
											{
												OFFSET -0.150902 2.584198 0.152708
											}
										}
									}
								}
							}
							JOINT newVegas:Left_Sleeve
							{
								OFFSET 0.267448 -0.649796 0.577675
								CHANNELS 3 Xrotation Yrotation Zrotation
								End Site
								{
									OFFSET 0.000000 15.991241 0.000000
								}
							}
							JOINT newVegas:Left_CapeC
							{
								OFFSET 15.715958 -8.608795 -6.935905
								CHANNELS 3 Xrotation Yrotation Zrotation
								JOINT newVegas:Left_CapeC1
								{
									OFFSET 0.000000 -8.688499 0.000000
									CHANNELS 3 Xrotation Yrotation Zrotation
									End Site
									{
										OFFSET 0.000000 8.688499 0.000000
									}
								}
							}
						}
						JOINT newVegas:Left_CapeB
						{
							OFFSET 26.118385 -8.608795 -7.079235
							CHANNELS 3 Xrotation Yrotation Zrotation
							JOINT newVegas:Left_CapeB1
							{
								OFFSET 0.000000 -8.688499 0.000000
								CHANNELS 3 Xrotation Yrotation Zrotation
								End Site
								{
									OFFSET 0.000000 8.688499 0.000000
								}
							}
						}
						JOINT newVegas:Left_CapeA
						{
							OFFSET 5.115639 -8.608795 -10.395809
							CHANNELS 3 Xrotation Yrotation Zrotation
							JOINT newVegas:Left_CapeA1
							{
								OFFSET 0.000000 -8.688499 0.000000
								CHANNELS 3 Xrotation Yrotation Zrotation
								End Site
								{
									OFFSET 0.000000 8.688499 0.000000
								}
							}
						}
					}
				}
				JOINT newVegas:RightShoulder
				{
					OFFSET -15.263000 10.923401 -0.547700
					CHANNELS 3 Xrotation Yrotation Zrotation
					JOINT newVegas:RightArm
					{
						OFFSET -25.438599 -2.830597 -13.032500
						CHANNELS 3 Xrotation Yrotation Zrotation
						JOINT newVegas:RightForeArm
						{
							OFFSET -29.960503 0.000000 0.000000
							CHANNELS 3 Xrotation Yrotation Zrotation
							JOINT newVegas:RightHand
							{
								OFFSET -27.849251 0.000000 0.000000
								CHANNELS 3 Xrotation Yrotation Zrotation
								JOINT newVegas:RightHandThumb1
								{
									OFFSET -4.487587 -3.305161 6.305391
									CHANNELS 3 Xrotation Yrotation Zrotation
									JOINT newVegas:RightHandThumb2
									{
										OFFSET -5.480453 -3.164139 3.164143
										CHANNELS 3 Xrotation Yrotation Zrotation
										JOINT newVegas:RightHandThumb3
										{
											OFFSET -5.159721 -2.978973 2.978967
											CHANNELS 3 Xrotation Yrotation Zrotation
											End Site
											{
												OFFSET -2.494507 5.926697 1.738678
											}
										}
									}
								}
								JOINT newVegas:RightHandIndex1
								{
									OFFSET -18.578728 -0.527832 5.208049
									CHANNELS 3 Xrotation Yrotation Zrotation
									JOINT newVegas:RightHandIndex2
									{
										OFFSET -3.192009 0.000000 0.000000
										CHANNELS 3 Xrotation Yrotation Zrotation
										JOINT newVegas:RightHandIndex3
										{
											OFFSET -3.835129 0.000000 0.000000
											CHANNELS 3 Xrotation Yrotation Zrotation
											End Site
											{
												OFFSET 0.034599 3.816971 0.371180
											}
										}
									}
								}
								JOINT newVegas:RightHandMiddle1
								{
									OFFSET -18.476105 0.000000 0.000000
									CHANNELS 3 Xrotation Yrotation Zrotation
									JOINT newVegas:RightHandMiddle2
									{
										OFFSET -3.324875 0.000000 0.000000
										CHANNELS 3 Xrotation Yrotation Zrotation
										JOINT newVegas:RightHandMiddle3
										{
											OFFSET -4.596550 0.000000 0.000000
											CHANNELS 3 Xrotation Yrotation Zrotation
											End Site
											{
												OFFSET -0.057701 4.578827 0.399218
											}
										}
									}
								}
								JOINT newVegas:RightHandRing1
								{
									OFFSET -17.732719 0.121887 -4.201567
									CHANNELS 3 Xrotation Yrotation Zrotation
									JOINT newVegas:RightHandRing2
									{
										OFFSET -2.733170 0.000000 0.000000
										CHANNELS 3 Xrotation Yrotation Zrotation
										JOINT newVegas:RightHandRing3
										{
											OFFSET -3.178268 0.000000 0.000000
											CHANNELS 3 Xrotation Yrotation Zrotation
											End Site
											{
												OFFSET -0.119102 3.170624 0.185394
											}
										}
									}
								}
								JOINT newVegas:RightHandPinky1
								{
									OFFSET -15.989624 -0.606689 -7.535461
									CHANNELS 3 Xrotation Yrotation Zrotation
									JOINT newVegas:RightHandPinky2
									{
										OFFSET -2.538986 0.000000 0.000000
										CHANNELS 3 Xrotation Yrotation Zrotation
										JOINT newVegas:RightHandPinky3
										{
											OFFSET -2.593102 0.000000 0.000000
											CHANNELS 3 Xrotation Yrotation Zrotation
											End Site
											{
												OFFSET 0.150902 2.584198 0.152708
											}
										}
									}
								}
							}
							JOINT newVegas:Right_CapeC
							{
								OFFSET -15.715958 -8.608795 -6.935905
								CHANNELS 3 Xrotation Yrotation Zrotation
								JOINT newVegas:Right_CapeC1
								{
									OFFSET 0.000000 -8.688499 0.000000
									CHANNELS 3 Xrotation Yrotation Zrotation
									End Site
									{
										OFFSET 0.000000 8.688499 0.000000
									}
								}
							}
							JOINT newVegas:Right_Sleeve
							{
								OFFSET -0.267448 -0.649994 0.577675
								CHANNELS 3 Xrotation Yrotation Zrotation
								End Site
								{
									OFFSET 0.000000 15.991302 0.000000
								}
							}
						}
						JOINT newVegas:Right_CapeA
						{
							OFFSET -5.115540 -8.608795 -10.395824
							CHANNELS 3 Xrotation Yrotation Zrotation
							JOINT newVegas:Right_CapeA1
							{
								OFFSET 0.000000 -8.688499 0.000000
								CHANNELS 3 Xrotation Yrotation Zrotation
								End Site
								{
									OFFSET 0.000000 8.688499 0.000000
								}
							}
						}
						JOINT newVegas:Right_CapeB
						{
							OFFSET -26.118187 -8.608795 -7.079266
							CHANNELS 3 Xrotation Yrotation Zrotation
							JOINT newVegas:Right_CapeB1
							{
								OFFSET 0.000000 -8.688499 0.000000
								CHANNELS 3 Xrotation Yrotation Zrotation
								End Site
								{
									OFFSET 0.000000 8.688499 0.000000
								}
							}
						}
					}
				}
				JOINT newVegas:Left_Collar
				{
					OFFSET 18.625099 8.655502 8.828100
					CHANNELS 3 Xrotation Yrotation Zrotation
					JOINT newVegas:Left_Collar1
					{
						OFFSET 14.783401 10.540405 -1.259500
						CHANNELS 3 Xrotation Yrotation Zrotation
						End Site
						{
							OFFSET 0.000000 18.199875 0.000000
						}
					}
				}
				JOINT newVegas:Collar_Back
				{
					OFFSET 0.000000 15.630707 -20.132601
					CHANNELS 3 Xrotation Yrotation Zrotation
					End Site
					{
						OFFSET 0.000000 22.523010 0.000000
					}
				}
				JOINT newVegas:Left_Peck
				{
					OFFSET 17.239599 -5.132599 25.482599
					CHANNELS 3 Xrotation Yrotation Zrotation
					End Site
					{
						OFFSET 0.000000 22.523010 0.000000
					}
				}
				JOINT newVegas:Right_Peck
				{
					OFFSET -17.239599 -5.132202 25.482599
					CHANNELS 3 Xrotation Yrotation Zrotation
					End Site
					{
						OFFSET 0.000000 22.523010 0.000000
					}
				}
				JOINT newVegas:Right_Collar
				{
					OFFSET -18.625099 8.655792 8.828100
					CHANNELS 3 Xrotation Yrotation Zrotation
					JOINT newVegas:Right_Collar1
					{
						OFFSET -14.783401 10.539993 -1.259500
						CHANNELS 3 Xrotation Yrotation Zrotation
						End Site
						{
							OFFSET 0.000000 18.199631 0.000000
						}
					}
				}
			}
		}
		JOINT newVegas:Belly
		{
			OFFSET 0.000000 -6.540398 9.014299
			CHANNELS 3 Xrotation Yrotation Zrotation
			End Site
			{
				OFFSET 0.000000 11.566666 0.000000
			}
		}
	}
	JOINT newVegas:ElvisFacialAnim_Joint
	{
		OFFSET 1.000000 -95.330101 -8.825800
		CHANNELS 3 Xrotation Yrotation Zrotation
		End Site
		{
			OFFSET 0.000000 35.315800 0.000000
		}
	}
}
MOTION
Frames: 4
Frame Time: 0.033333
-9.608330 76.306755 3.667373 10.023746 -72.510627 12.741832 -0.000000 -0.000001 0.000000 -82.840455 -4.664107 -11.618483 98.510008 1.131427 -4.544147 72.799742 -3.719800 8.061693 -0.000000 -0.000000 -0.000000 0.000002 -0.000002 0.000001 -24.146565 -16.836758 -1.722313 78.472542 -2.446193 -1.178298 -56.499219 3.328019 -4.867730 -0.000000 -0.000000 -0.000000 0.000002 0.000001 -0.000000 9.855644 3.896754 1.389307 9.786455 4.184880 -2.569629 9.855729 4.382617 -2.005418 -2.113077 2.926701 -0.683754 -2.113062 2.926669 -0.683746 0.000003 -0.000001 0.000001 -2.113137 2.926741 -0.683756 -2.113005 2.926671 -0.683742 -0.000001 0.000000 -0.000000 0.000003 -0.000001 0.000000 5.273564 -15.041023 0.013410 -45.096184 21.336290 -43.366070 -82.482532 21.704220 -100.817356 -38.461260 -8.632660 4.657050 0.699126 9.503389 -2.418113 5.975191 12.647532 1.348344 0.000001 -0.000004 -0.000001 9.479716 -1.289794 -20.785567 0.709471 2.796470 -28.467129 -0.000001 0.000002 -0.000002 10.058166 -1.800612 -20.644720 1.774257 4.200482 -45.782078 0.000006 -0.000002 0.000000 1.254236 -0.073754 -17.945776 3.754104 5.463583 -68.965287 0.000004 -0.000001 0.000002 -7.938250 1.609076 -6.495690 2.210577 4.583669 -51.475167 -0.000000 -0.000005 -0.000002 0.000001 0.000001 -0.000002 0.000001 0.000001 -0.000002 0.000000 0.000001 -0.000001 -0.000002 0.000000 0.000005 -0.000002 0.000000 0.000004 -0.000002 0.000000 0.000005 -0.000003 -0.000000 0.000005 11.508757 27.765615 -4.069486 -22.778536 48.706082 42.730247 45.510363 114.759759 -57.244505 -10.162175 -5.502859 -1.960094 13.942502 -4.273700 -5.300379 7.113153 -20.767501 -2.619499 -0.000000 -0.000003 -0.000001 0.357766 -5.832744 5.175867 0.094346 -0.933630 11.539844 -0.000000 -0.000001 0.000000 3.764104 -12.080541 1.143774 5.714263 -4.535819 103.133486 0.000001 -0.000001 -0.000002 -12.155606 -12.623936 9.228348 6.566910 -4.248372 114.232291 -0.000001 0.000002 0.000004 -17.635767 -10.496842 3.325403 4.993631 -4.644977 94.147970 0.000000 -0.000002 0.000001 -0.000000 0.000001 -0.000000 -0.000000 0.000001 -0.000000 -0.000000 0.000001 -0.000001 -0.000001 0.000003 -0.000001 -0.000001 0.000003 -0.000002 -0.000001 0.000003 -0.000001 -0.000001 0.000003 -0.000002 0.000000 -0.000001 0.000000 0.000000 -0.000001 0.000000 0.000000 -0.000001 0.000000 0.000000 -0.000001 0.000000 0.000000 -0.000001 0.000000 0.000000 -0.000001 0.000000 0.000000 -0.000001 0.000000 -0.000001 0.000001 0.000001 -0.000000 -0.000001 0.000000 
-24.131655 83.550873 1.066843 12.380105 -67.717617 20.471069 0.000000 -0.000001 -0.000000 -82.657747 3.070513 -12.831654 74.275363 1.472292 -3.379196 33.654811 -3.514994 6.754389 0.000003 -0.000000 0.000000 -0.000000 -0.000002 -0.000000 6.357342 -17.239833 5.337461 35.838593 -5.018547 -1.510442 -47.284556 2.976613 -5.823935 0.000000 0.000000 0.000000 -0.000000 0.000000 -0.000001 10.270332 3.212719 -2.477593 9.494636 4.524688 -4.618397 9.573442 4.793479 -3.843189 -2.116945 2.757478 -1.060432 -2.116934 2.757479 -1.060441 0.000002 0.000000 0.000000 -2.116938 2.757486 -1.060435 -2.116933 2.757499 -1.060438 -0.000001 0.000001 -0.000000 0.000002 0.000000 -0.000001 4.702145 -14.591234 -1.344225 -50.726353 12.745759 -41.826668 -85.282855 21.922715 -93.135257 -38.598581 -4.294728 6.763620 0.699125 9.503386 -2.418110 5.975195 12.647537 1.348348 -0.000002 -0.000003 -0.000001 9.479717 -1.289798 -20.785563 0.709472 2.796466 -28.467127 -0.000004 -0.000000 -0.000001 10.058168 -1.800616 -20.644721 1.774255 4.200487 -45.782082 0.000004 -0.000002 -0.000002 1.254237 -0.073752 -17.945777 3.754105 5.463585 -68.965287 -0.000002 0.000001 0.000001 -7.938253 1.609080 -6.495690 2.210580 4.583665 -51.475167 -0.000001 -0.000005 -0.000001 0.000003 -0.000002 0.000000 0.000003 -0.000002 0.000000 0.000002 -0.000001 0.000001 -0.000001 -0.000001 -0.000001 -0.000001 -0.000002 -0.000001 -0.000001 -0.000001 -0.000001 -0.000002 0.000000 -0.000001 11.856072 28.544127 -4.365542 -23.315564 47.500612 42.032639 44.953498 115.133384 -56.583681 -8.380293 -4.326325 -7.922786 13.942498 -4.273703 -5.300381 7.113151 -20.767499 -2.619506 0.000000 -0.000003 0.000001 0.357767 -5.832745 5.175867 0.094345 -0.933631 11.539839 0.000000 0.000001 -0.000001 3.764105 -12.080543 1.143774 5.714263 -4.535817 103.133486 0.000000 0.000000 -0.000002 -12.155605 -12.623936 9.228349 6.566906 -4.248372 114.232291 -0.000001 -0.000001 0.000001 -17.635765 -10.496841 3.325402 4.993630 -4.644976 94.147970 -0.000001 -0.000004 -0.000000 -0.000000 -0.000002 -0.000001 -0.000000 -0.000000 -0.000001 -0.000001 -0.000002 -0.000001 0.000001 0.000000 0.000003 0.000001 0.000000 0.000002 0.000001 0.000000 0.000003 0.000001 0.000000 0.000002 -0.000001 0.000000 0.000001 -0.000001 0.000000 0.000001 -0.000001 0.000000 0.000001 -0.000001 0.000000 0.000001 -0.000001 0.000000 0.000001 -0.000001 0.000000 0.000001 -0.000001 0.000000 0.000001 0.000000 -0.000001 0.000001 0.000000 -0.000001 -0.000000 
-38.560364 86.943085 -0.759189 14.268072 -63.127395 24.069168 -0.000000 -0.000000 -0.000000 -71.692370 3.578611 -17.261449 44.144708 1.871478 -2.566290 8.632437 -2.679101 4.413694 -0.000000 -0.000001 -0.000001 -0.000001 0.000001 0.000001 -3.471239 -22.573287 2.870134 42.098045 -5.746626 -1.862020 -5.228942 1.622601 -7.825604 -0.000002 -0.000000 -0.000001 0.000003 0.000001 -0.000001 10.286244 2.824493 -3.480753 9.018825 5.017293 -5.776780 9.124013 5.151336 -5.232477 -1.990462 2.635596 -1.462321 -1.990524 2.635579 -1.462259 -0.000000 0.000001 -0.000001 -1.990491 2.635582 -1.462291 -1.990477 2.635575 -1.462290 -0.000000 0.000001 -0.000001 -0.000000 0.000001 -0.000000 5.147625 -14.258093 -0.831120 -52.928659 5.353660 -42.812483 -87.665956 22.088360 -86.673482 -38.915812 -1.287277 5.676873 0.699124 9.503397 -2.418110 5.975195 12.647536 1.348348 0.000003 -0.000001 -0.000001 9.479715 -1.289794 -20.785565 0.709471 2.796468 -28.467122 0.000000 0.000003 0.000000 10.058166 -1.800609 -20.644723 1.774254 4.200486 -45.782082 0.000001 -0.000002 0.000002 1.254236 -0.073746 -17.945776 3.754105 5.463584 -68.965294 0.000002 -0.000001 -0.000000 -7.938252 1.609082 -6.495689 2.210586 4.583661 -51.475167 0.000002 -0.000002 -0.000002 -0.000001 0.000001 0.000001 -0.000001 0.000001 0.000001 -0.000002 0.000001 0.000002 0.000000 0.000003 -0.000003 0.000001 0.000003 -0.000003 0.000000 0.000003 -0.000003 -0.000001 0.000003 -0.000003 12.547485 29.152893 -4.754388 -22.456530 44.471908 41.155817 41.889817 115.562921 -53.293005 -7.170460 -3.013793 -12.007207 13.942503 -4.273702 -5.300382 7.113151 -20.767504 -2.619505 0.000000 -0.000003 0.000001 0.357767 -5.832748 5.175867 0.094345 -0.933630 11.539842 -0.000000 0.000001 -0.000000 3.764103 -12.080543 1.143773 5.714263 -4.535817 103.133480 0.000001 -0.000000 0.000002 -12.155606 -12.623933 9.228350 6.566909 -4.248370 114.232291 0.000001 0.000000 0.000005 -17.635767 -10.496840 3.325401 4.993634 -4.644975 94.147970 -0.000001 -0.000004 -0.000001 0.000000 0.000002 0.000001 0.000000 0.000000 0.000000 0.000000 0.000002 -0.000000 0.000001 -0.000001 0.000000 0.000001 -0.000001 -0.000000 0.000001 -0.000001 0.000000 0.000001 -0.000001 -0.000000 -0.000000 -0.000001 0.000001 -0.000000 -0.000001 0.000001 -0.000000 -0.000001 0.000001 -0.000000 -0.000001 0.000001 -0.000000 -0.000001 0.000001 -0.000000 -0.000001 0.000001 -0.000000 -0.000001 0.000001 -0.000001 -0.000000 -0.000000 -0.000000 -0.000000 -0.000000 
-51.880981 86.287514 -1.404376 16.992266 -61.260144 25.941900 -0.000000 0.000000 -0.000001 -61.984670 2.820400 -20.662156 17.514734 0.278716 -0.434271 10.761593 -0.496147 6.443372 -0.000000 -0.000001 -0.000000 -0.000004 0.000001 -0.000000 -6.759556 -22.293966 -1.497746 42.518173 -5.010262 -1.163790 23.173111 -0.923796 3.112652 -0.000000 -0.000000 0.000000 0.000000 -0.000000 0.000000 8.457133 3.000983 -1.193170 9.802837 5.066589 -7.595638 10.072937 4.990652 -7.191578 -1.759991 2.595703 -1.630090 -1.759984 2.595710 -1.630093 0.000001 0.000000 -0.000001 -1.760037 2.595723 -1.630089 -1.759900 2.595650 -1.630086 -0.000002 -0.000002 -0.000000 0.000001 0.000000 -0.000001 5.519598 -14.149129 -0.153651 -55.445830 0.502004 -42.954732 -89.113307 22.508783 -82.994230 -38.168552 -0.804231 4.885236 0.699126 9.503398 -2.418111 5.975191 12.647533 1.348342 0.000003 -0.000006 0.000002 9.479715 -1.289792 -20.785565 0.709472 2.796470 -28.467125 0.000001 0.000001 -0.000001 10.058166 -1.800609 -20.644721 1.774256 4.200486 -45.782078 -0.000000 0.000001 -0.000002 1.254237 -0.073742 -17.945776 3.754104 5.463583 -68.965294 0.000005 -0.000002 0.000001 -7.938252 1.609082 -6.495686 2.210584 4.583660 -51.475167 -0.000001 -0.000005 -0.000003 0.000000 -0.000001 0.000000 0.000000 -0.000001 0.000000 -0.000000 -0.000001 0.000001 -0.000002 -0.000003 0.000001 -0.000002 -0.000003 0.000002 -0.000002 -0.000003 0.000001 -0.000003 -0.000002 0.000001 13.374345 29.681202 -5.187971 -24.238306 41.706146 41.172496 42.680619 116.361302 -53.925597 -6.145800 -1.479306 -12.196501 13.942502 -4.273702 -5.300382 7.113149 -20.767501 -2.619505 0.000002 0.000000 0.000001 0.357768 -5.832745 5.175867 0.094347 -0.933629 11.539839 -0.000000 -0.000000 -0.000000 3.764104 -12.080542 1.143774 5.714263 -4.535818 103.133486 0.000001 -0.000000 -0.000002 -12.155605 -12.623936 9.228349 6.566907 -4.248370 114.232298 -0.000001 0.000004 0.000003 -17.635765 -10.496844 3.325401 4.993630 -4.644981 94.147970 -0.000001 -0.000000 -0.000000 -0.000000 0.000002 0.000000 0.000000 0.000000 0.000001 -0.000000 0.000001 0.000000 -0.000001 0.000000 -0.000002 -0.000000 0.000001 -0.000002 -0.000001 0.000000 -0.000002 -0.000000 0.000001 -0.000002 -0.000001 0.000000 0.000000 -0.000001 0.000000 0.000000 -0.000001 0.000000 0.000000 -0.000001 0.000000 0.000000 -0.000001 0.000000 0.000000 -0.000001 0.000000 0.000000 -0.000001 0.000000 0.000000 -0.000001 -0.000001 -0.000000 -0.000000 0.000000 -0.000001 
